<svg width="24" height="25" viewBox="0 0 24 25" fill="none" xmlns="http://www.w3.org/2000/svg">
<g id="Group">
<g id="Group_2">
<path id="Path" d="M12 6.66418V8.16418" stroke="#1675E8" stroke-width="1.5" stroke-linecap="round" stroke-linejoin="round"/>
<path id="Path_2" d="M18.3639 6.30022C21.8787 9.81494 21.8787 15.5134 18.3639 19.0281C14.8492 22.5428 9.15074 22.5428 5.63604 19.0281C2.12132 15.5134 2.12132 9.81492 5.63604 6.30022C9.15076 2.7855 14.8492 2.7855 18.3639 6.30022" stroke="#1675E8" stroke-width="1.5" stroke-linecap="round" stroke-linejoin="round"/>
<path id="Path_3" d="M12 18.6642V17.1642" stroke="#1675E8" stroke-width="1.5" stroke-linecap="round" stroke-linejoin="round"/>
<path id="Path_4" d="M9 14.9192V14.9192C9 16.1622 10.007 17.1692 11.25 17.1692H12.893C14.056 17.1692 15 16.2262 15 15.0622V15.0622C15 14.0962 14.343 13.2542 13.406 13.0192L10.594 12.3142C9.657 12.0792 9 11.2372 9 10.2712V10.2712C9 9.10718 9.943 8.16418 11.107 8.16418H12.75C13.993 8.16418 15 9.17118 15 10.4142V10.4142" stroke="#1675E8" stroke-width="1.5" stroke-linecap="round" stroke-linejoin="round"/>
</g>
</g>
</svg>
