<svg width="160" height="28" viewBox="0 0 160 28" fill="none" xmlns="http://www.w3.org/2000/svg">
<g id="Logo">
<path d="M0 0.943283H3.88V27.097H0V0.943283Z" fill="white"/>
<path d="M10.5859 0.943283H15.2659L29.3859 22.5433V0.943283H32.7859V27.097H28.1059L13.9859 5.13433V27.097H10.5859V0.943283Z" fill="white"/>
<path d="M39.4922 0.943283H49.8122C57.0922 0.943283 60.7322 3.44179 60.7322 8.43881V20.0045C60.7322 24.7328 57.1055 27.097 49.8522 27.097H39.4922V0.943283ZM49.5722 24.4373C54.5322 24.4373 57.0122 22.9328 57.0122 19.9239V8.39851C57.0122 7.43134 56.8122 6.61194 56.4122 5.9403C56.0122 5.26866 55.4522 4.77164 54.7322 4.44925C54.0122 4.15373 53.2655 3.95224 52.4922 3.84478C51.7189 3.71045 50.8122 3.64328 49.7722 3.64328H43.3722V24.4373H49.5722Z" fill="white"/>
<path d="M66.6406 0.943283H84.0806V3.68358H70.5206V12.2269H82.7606V14.9672H70.5206V24.3567H84.4806V27.097H66.6406V0.943283Z" fill="white"/>
<path d="M99.9638 27.5C92.6838 27.5 89.0437 25.1358 89.0437 20.4075V7.99552C89.0437 2.99851 92.6838 0.5 99.9638 0.5C102.444 0.5 104.817 0.755224 107.084 1.26567V4.16716C104.524 3.52239 102.177 3.2 100.044 3.2C99.0037 3.2 98.0971 3.26716 97.3238 3.40149C96.5504 3.50895 95.8037 3.71045 95.0837 4.00597C93.5371 4.67761 92.7637 5.99403 92.7637 7.95522V20.206C92.7637 23.2149 95.2438 24.7194 100.204 24.7194C102.337 24.7194 104.684 24.397 107.244 23.7522V26.7343C104.977 27.2448 102.55 27.5 99.9638 27.5Z" fill="white"/>
<path d="M122.582 27.5C115.329 27.5 111.702 25.1358 111.702 20.4075V8.03582C111.702 3.03881 115.329 0.540298 122.582 0.540298C129.915 0.540298 133.582 3.02537 133.582 7.99552V20.4075C133.582 22.9328 132.569 24.7463 130.542 25.8478C128.515 26.9493 125.862 27.5 122.582 27.5ZM122.662 24.8806C127.435 24.8806 129.822 23.3761 129.822 20.3672V7.91493C129.822 4.69104 127.422 3.0791 122.622 3.0791C120.302 3.0791 118.515 3.44179 117.262 4.16716C116.035 4.89254 115.422 6.14179 115.422 7.91493V20.3672C115.422 23.3761 117.835 24.8806 122.662 24.8806Z" fill="white"/>
<path d="M139.57 0.943283H148.69C150.984 0.943283 152.77 1.09104 154.05 1.38657C155.357 1.65522 156.304 2.15224 156.89 2.87761C157.504 3.60299 157.81 4.66418 157.81 6.06119V10.5746C157.81 12.1328 157.17 13.3418 155.89 14.2015C154.637 15.0343 153.037 15.4507 151.09 15.4507L159.41 27.097H154.65L147.21 15.9343H143.45V27.097H139.57V0.943283ZM148.53 13.3552C150.45 13.3552 151.824 13.1269 152.65 12.6701C153.504 12.1866 153.93 11.3269 153.93 10.091V6.46418C153.93 4.50298 152.25 3.52239 148.89 3.52239H143.45V13.3552H148.53Z" fill="white"/>
</g>
</svg>
