<svg width="157" height="27" viewBox="0 0 157 27" fill="none" xmlns="http://www.w3.org/2000/svg">
<g id="log">
<path d="M5.38175 0.348012V25.8026H0V0.348012H5.38175Z" fill="white"/>
<path d="M31.1004 0.348012V25.8026H26.452L15.3778 9.78161H15.1913V25.8026H9.80957V0.348012H14.5326L25.5198 16.3565H25.7435V0.348012H31.1004Z" fill="white"/>
<path d="M44.5703 25.8026H35.5469V0.348012H44.6449C47.2053 0.348012 49.4093 0.8576 51.2571 1.87678C53.1049 2.88767 54.5259 4.34186 55.5202 6.23935C56.5228 8.13684 57.0241 10.4072 57.0241 13.0504C57.0241 15.7019 56.5228 17.9806 55.5202 19.8864C54.5259 21.7921 53.0966 23.2546 51.2322 24.2738C49.3762 25.293 47.1555 25.8026 44.5703 25.8026ZM40.9286 21.1914H44.3466C45.9375 21.1914 47.2757 20.9097 48.3612 20.3462C49.4549 19.7745 50.2752 18.892 50.8221 17.6989C51.3773 16.4974 51.6548 14.9479 51.6548 13.0504C51.6548 11.1695 51.3773 9.63246 50.8221 8.43928C50.2752 7.24609 49.459 6.36778 48.3736 5.80433C47.2881 5.24089 45.9499 4.95916 44.359 4.95916H40.9286V21.1914Z" fill="white"/>
<path d="M61.0107 25.8026V0.348012H78.1627V4.78516H66.3925V10.8505H77.2803V15.2876H66.3925V21.3654H78.2124V25.8026H61.0107Z" fill="white"/>
<path d="M104.901 9.25959H99.4567C99.3572 8.55528 99.1542 7.92969 98.8477 7.38281C98.5411 6.82765 98.1475 6.35535 97.6669 5.96591C97.1863 5.57647 96.6312 5.27817 96.0014 5.07102C95.38 4.86387 94.7047 4.7603 93.9755 4.7603C92.658 4.7603 91.5104 5.0876 90.5327 5.74219C89.5549 6.38849 88.7968 7.3331 88.2582 8.576C87.7196 9.81061 87.4503 11.3104 87.4503 13.0753C87.4503 14.8899 87.7196 16.4145 88.2582 17.6491C88.805 18.8838 89.5674 19.8159 90.5451 20.4457C91.5228 21.0754 92.6539 21.3903 93.9382 21.3903C94.6591 21.3903 95.3261 21.295 95.9393 21.1044C96.5607 20.9138 97.1117 20.6362 97.5923 20.2717C98.0729 19.8988 98.4706 19.4472 98.7855 18.9169C99.1087 18.3866 99.3324 17.7817 99.4567 17.1023L104.901 17.1271C104.76 18.2955 104.408 19.4223 103.844 20.5078C103.289 21.585 102.539 22.5503 101.594 23.4038C100.658 24.2489 99.5395 24.9201 98.2386 25.4173C96.946 25.9061 95.4836 26.1506 93.8512 26.1506C91.5808 26.1506 89.5508 25.6368 87.761 24.6094C85.9795 23.5819 84.5709 22.0946 83.5352 20.1474C82.5077 18.2002 81.994 15.8428 81.994 13.0753C81.994 10.2995 82.516 7.93797 83.56 5.99077C84.604 4.04356 86.021 2.56037 87.8107 1.54119C89.6005 0.513731 91.614 0 93.8512 0C95.3261 0 96.6933 0.20715 97.9528 0.621449C99.2205 1.03575 100.343 1.64062 101.321 2.43608C102.299 3.22325 103.094 4.18857 103.707 5.33203C104.329 6.4755 104.727 7.78468 104.901 9.25959Z" fill="white"/>
<path d="M132.151 13.0753C132.151 15.8511 131.625 18.2126 130.573 20.1598C129.529 22.107 128.103 23.5943 126.297 24.6218C124.499 25.641 122.477 26.1506 120.232 26.1506C117.97 26.1506 115.94 25.6368 114.142 24.6094C112.343 23.5819 110.922 22.0946 109.878 20.1474C108.834 18.2002 108.312 15.8428 108.312 13.0753C108.312 10.2995 108.834 7.93797 109.878 5.99077C110.922 4.04356 112.343 2.56037 114.142 1.54119C115.94 0.513731 117.97 0 120.232 0C122.477 0 124.499 0.513731 126.297 1.54119C128.103 2.56037 129.529 4.04356 130.573 5.99077C131.625 7.93797 132.151 10.2995 132.151 13.0753ZM126.695 13.0753C126.695 11.2772 126.425 9.76089 125.887 8.52628C125.357 7.29167 124.607 6.35535 123.637 5.71733C122.668 5.07931 121.533 4.7603 120.232 4.7603C118.931 4.7603 117.796 5.07931 116.826 5.71733C115.857 6.35535 115.103 7.29167 114.564 8.52628C114.034 9.76089 113.769 11.2772 113.769 13.0753C113.769 14.8733 114.034 16.3897 114.564 17.6243C115.103 18.8589 115.857 19.7952 116.826 20.4332C117.796 21.0713 118.931 21.3903 120.232 21.3903C121.533 21.3903 122.668 21.0713 123.637 20.4332C124.607 19.7952 125.357 18.8589 125.887 17.6243C126.425 16.3897 126.695 14.8733 126.695 13.0753Z" fill="white"/>
<path d="M136.138 25.8026V0.348012H146.18C148.103 0.348012 149.743 0.69188 151.102 1.37962C152.469 2.05907 153.509 3.02438 154.222 4.27557C154.943 5.51847 155.303 6.98094 155.303 8.663C155.303 10.3533 154.939 11.8075 154.209 13.0256C153.48 14.2353 152.424 15.1634 151.04 15.8097C149.665 16.456 147.999 16.7791 146.044 16.7791H139.32V12.4538H145.174C146.201 12.4538 147.054 12.313 147.734 12.0313C148.413 11.7495 148.919 11.3269 149.25 10.7635C149.59 10.2 149.76 9.49988 149.76 8.663C149.76 7.81783 149.59 7.10523 149.25 6.52521C148.919 5.94519 148.409 5.50604 147.721 5.20774C147.042 4.90116 146.184 4.74787 145.149 4.74787H141.519V25.8026H136.138ZM149.884 14.2188L156.21 25.8026H150.269L144.08 14.2188H149.884Z" fill="white"/>
</g>
</svg>
