<svg width="24" height="25" viewBox="0 0 24 25" fill="none" xmlns="http://www.w3.org/2000/svg">
<g id="Group">
<path id="Path" d="M16.0067 11.6638H11.0046" stroke="#456233" stroke-width="1.5" stroke-linecap="round" stroke-linejoin="round"/>
<path id="Path_2" d="M16.0067 15.6654H11.0046" stroke="#456233" stroke-width="1.5" stroke-linecap="round" stroke-linejoin="round"/>
<path id="Path_3" d="M8.12838 11.5387C8.05932 11.5387 8.00333 11.5947 8.00333 11.6638C8.00333 11.7328 8.05932 11.7888 8.12838 11.7888C8.19745 11.7888 8.25343 11.7328 8.25343 11.6638C8.25343 11.5947 8.19745 11.5387 8.12838 11.5387" stroke="#456233" stroke-width="1.5" stroke-linecap="round" stroke-linejoin="round"/>
<path id="Path_4" d="M8.12838 15.5404C8.05932 15.5404 8.00333 15.5964 8.00333 15.6654C8.00333 15.7345 8.05932 15.7905 8.12838 15.7905C8.19745 15.7905 8.25343 15.7345 8.25343 15.6654C8.25343 15.5964 8.19745 15.5404 8.12838 15.5404" stroke="#456233" stroke-width="1.5" stroke-linecap="round" stroke-linejoin="round"/>
<path id="Path_5" d="M3.00122 19.6671H7.00289" stroke="#456233" stroke-width="1.5" stroke-linecap="round" stroke-linejoin="round"/>
<path id="Path_6" d="M5.00204 21.6679V17.6663" stroke="#456233" stroke-width="1.5" stroke-linecap="round" stroke-linejoin="round"/>
<path id="Path_7" d="M8.00338 5.66125H6.00254C4.89751 5.66125 4.00171 6.55706 4.00171 7.66209V14.665" stroke="#456233" stroke-width="1.5" stroke-linecap="round" stroke-linejoin="round"/>
<rect id="Rectangle" x="8.0033" y="3.6604" width="8.00333" height="4.00167" rx="1" stroke="#456233" stroke-width="1.5" stroke-linecap="round" stroke-linejoin="round"/>
<path id="Path_8" d="M16.0067 5.66125H18.0075C19.1125 5.66125 20.0083 6.55706 20.0083 7.66209V19.6671C20.0083 20.7721 19.1125 21.6679 18.0075 21.6679H10.0042" stroke="#456233" stroke-width="1.5" stroke-linecap="round" stroke-linejoin="round"/>
</g>
</svg>
